  0
SECTION
  2
HEADER
  9
$ACADVER
  1
AC1009
  9
$FILLMODE
 70
 0
  9
$SPLFRAME
 70
 1
  9
$EXTMIN
 10
0
 20
0
 30
0.0
  9
$EXTMAX
 10
1058.33
 20
1058.33
 30
0.0
  0
ENDSEC
  0
SECTION
  2
TABLES
  0
TABLE
  2
LAYER
 70
1
  0
LAYER
  2
0
 70
     0
 62
     7
  6
CONTINUOUS
  0
ENDTAB
  0
ENDSEC
  0
SECTION
  2
ENTITIES
  0
LINE
  8
0
 62
     0
 10
0.0950846
 20
66.9325
 30
0.0
 11
57.2453
 21
66.9325
 31
0.0
  0
LINE
  8
0
 62
     0
 10
57.2453
 20
66.9325
 30
0.0
 11
57.2453
 21
0.257693
 31
0.0
  0
LINE
  8
0
 62
     0
 10
57.2453
 20
0.257693
 30
0.0
 11
0.0950846
 21
0.257693
 31
0.0
  0
LINE
  8
0
 62
     0
 10
0.0950846
 20
0.257693
 30
0.0
 11
0.0950846
 21
66.9325
 31
0.0
  0
LINE
  8
0
 62
     0
 10
2.61965
 20
16.7831
 30
0.0
 11
2.61965
 21
15.7827
 31
0.0
  0
LINE
  8
0
 62
     0
 10
2.61965
 20
15.7827
 30
0.0
 11
1.81901
 21
15.7827
 31
0.0
  0
LINE
  8
0
 62
     0
 10
1.81901
 20
15.7827
 30
0.0
 11
1.81901
 21
12.6835
 31
0.0
  0
LINE
  8
0
 62
     0
 10
1.81901
 20
12.6835
 30
0.0
 11
2.61965
 21
12.6835
 31
0.0
  0
LINE
  8
0
 62
     0
 10
2.61965
 20
12.6835
 30
0.0
 11
2.61965
 21
6.88329
 31
0.0
  0
LINE
  8
0
 62
     0
 10
2.61965
 20
6.88329
 30
0.0
 11
1.81901
 21
6.88329
 31
0.0
  0
LINE
  8
0
 62
     0
 10
1.81901
 20
6.88329
 30
0.0
 11
1.81901
 21
3.78273
 31
0.0
  0
LINE
  8
0
 62
     0
 10
1.81901
 20
3.78273
 30
0.0
 11
2.61965
 21
3.78273
 31
0.0
  0
LINE
  8
0
 62
     0
 10
2.61965
 20
3.78273
 30
0.0
 11
2.61965
 21
2.78364
 31
0.0
  0
LINE
  8
0
 62
     0
 10
2.61965
 20
2.78364
 30
0.0
 11
16.6192
 21
2.78364
 31
0.0
  0
LINE
  8
0
 62
     0
 10
16.6192
 20
2.78364
 30
0.0
 11
16.6192
 21
3.78273
 31
0.0
  0
LINE
  8
0
 62
     0
 10
16.6192
 20
3.78273
 30
0.0
 11
17.4198
 21
3.78273
 31
0.0
  0
LINE
  8
0
 62
     0
 10
17.4198
 20
3.78273
 30
0.0
 11
17.4198
 21
6.88329
 31
0.0
  0
LINE
  8
0
 62
     0
 10
17.4198
 20
6.88329
 30
0.0
 11
16.6192
 21
6.88329
 31
0.0
  0
LINE
  8
0
 62
     0
 10
16.6192
 20
6.88329
 30
0.0
 11
16.6192
 21
12.6835
 31
0.0
  0
LINE
  8
0
 62
     0
 10
16.6192
 20
12.6835
 30
0.0
 11
17.4198
 21
12.6835
 31
0.0
  0
LINE
  8
0
 62
     0
 10
17.4198
 20
12.6835
 30
0.0
 11
17.4198
 21
15.7827
 31
0.0
  0
LINE
  8
0
 62
     0
 10
17.4198
 20
15.7827
 30
0.0
 11
16.6192
 21
15.7827
 31
0.0
  0
LINE
  8
0
 62
     0
 10
16.6192
 20
15.7827
 30
0.0
 11
16.6192
 21
16.7831
 31
0.0
  0
LINE
  8
0
 62
     0
 10
16.6192
 20
16.7831
 30
0.0
 11
2.61965
 21
16.7831
 31
0.0
  0
LINE
  8
0
 62
     0
 10
21.6697
 20
16.7831
 30
0.0
 11
21.6697
 21
15.7827
 31
0.0
  0
LINE
  8
0
 62
     0
 10
21.6697
 20
15.7827
 30
0.0
 11
20.869
 21
15.7827
 31
0.0
  0
LINE
  8
0
 62
     0
 10
20.869
 20
15.7827
 30
0.0
 11
20.869
 21
12.6835
 31
0.0
  0
LINE
  8
0
 62
     0
 10
20.869
 20
12.6835
 30
0.0
 11
21.6697
 21
12.6835
 31
0.0
  0
LINE
  8
0
 62
     0
 10
21.6697
 20
12.6835
 30
0.0
 11
21.6697
 21
6.88329
 31
0.0
  0
LINE
  8
0
 62
     0
 10
21.6697
 20
6.88329
 30
0.0
 11
20.869
 21
6.88329
 31
0.0
  0
LINE
  8
0
 62
     0
 10
20.869
 20
6.88329
 30
0.0
 11
20.869
 21
3.78273
 31
0.0
  0
LINE
  8
0
 62
     0
 10
20.869
 20
3.78273
 30
0.0
 11
21.6697
 21
3.78273
 31
0.0
  0
LINE
  8
0
 62
     0
 10
21.6697
 20
3.78273
 30
0.0
 11
21.6697
 21
2.78364
 31
0.0
  0
LINE
  8
0
 62
     0
 10
21.6697
 20
2.78364
 30
0.0
 11
35.669
 21
2.78364
 31
0.0
  0
LINE
  8
0
 62
     0
 10
35.669
 20
2.78364
 30
0.0
 11
35.669
 21
3.78273
 31
0.0
  0
LINE
  8
0
 62
     0
 10
35.669
 20
3.78273
 30
0.0
 11
36.4698
 21
3.78273
 31
0.0
  0
LINE
  8
0
 62
     0
 10
36.4698
 20
3.78273
 30
0.0
 11
36.4698
 21
6.88329
 31
0.0
  0
LINE
  8
0
 62
     0
 10
36.4698
 20
6.88329
 30
0.0
 11
35.669
 21
6.88329
 31
0.0
  0
LINE
  8
0
 62
     0
 10
35.669
 20
6.88329
 30
0.0
 11
35.669
 21
12.6835
 31
0.0
  0
LINE
  8
0
 62
     0
 10
35.669
 20
12.6835
 30
0.0
 11
36.4698
 21
12.6835
 31
0.0
  0
LINE
  8
0
 62
     0
 10
36.4698
 20
12.6835
 30
0.0
 11
36.4698
 21
15.7827
 31
0.0
  0
LINE
  8
0
 62
     0
 10
36.4698
 20
15.7827
 30
0.0
 11
35.669
 21
15.7827
 31
0.0
  0
LINE
  8
0
 62
     0
 10
35.669
 20
15.7827
 30
0.0
 11
35.669
 21
16.7831
 31
0.0
  0
LINE
  8
0
 62
     0
 10
35.669
 20
16.7831
 30
0.0
 11
21.6697
 21
16.7831
 31
0.0
  0
LINE
  8
0
 62
     0
 10
40.7197
 20
16.7831
 30
0.0
 11
40.7197
 21
15.7827
 31
0.0
  0
LINE
  8
0
 62
     0
 10
40.7197
 20
15.7827
 30
0.0
 11
39.9189
 21
15.7827
 31
0.0
  0
LINE
  8
0
 62
     0
 10
39.9189
 20
15.7827
 30
0.0
 11
39.9189
 21
12.6835
 31
0.0
  0
LINE
  8
0
 62
     0
 10
39.9189
 20
12.6835
 30
0.0
 11
40.7197
 21
12.6835
 31
0.0
  0
LINE
  8
0
 62
     0
 10
40.7197
 20
12.6835
 30
0.0
 11
40.7197
 21
6.88329
 31
0.0
  0
LINE
  8
0
 62
     0
 10
40.7197
 20
6.88329
 30
0.0
 11
39.9189
 21
6.88329
 31
0.0
  0
LINE
  8
0
 62
     0
 10
39.9189
 20
6.88329
 30
0.0
 11
39.9189
 21
3.78273
 31
0.0
  0
LINE
  8
0
 62
     0
 10
39.9189
 20
3.78273
 30
0.0
 11
40.7197
 21
3.78273
 31
0.0
  0
LINE
  8
0
 62
     0
 10
40.7197
 20
3.78273
 30
0.0
 11
40.7197
 21
2.78364
 31
0.0
  0
LINE
  8
0
 62
     0
 10
40.7197
 20
2.78364
 30
0.0
 11
54.719
 21
2.78364
 31
0.0
  0
LINE
  8
0
 62
     0
 10
54.719
 20
2.78364
 30
0.0
 11
54.719
 21
3.78273
 31
0.0
  0
LINE
  8
0
 62
     0
 10
54.719
 20
3.78273
 30
0.0
 11
55.5198
 21
3.78273
 31
0.0
  0
LINE
  8
0
 62
     0
 10
55.5198
 20
3.78273
 30
0.0
 11
55.5198
 21
6.88329
 31
0.0
  0
LINE
  8
0
 62
     0
 10
55.5198
 20
6.88329
 30
0.0
 11
54.719
 21
6.88329
 31
0.0
  0
LINE
  8
0
 62
     0
 10
54.719
 20
6.88329
 30
0.0
 11
54.719
 21
12.6835
 31
0.0
  0
LINE
  8
0
 62
     0
 10
54.719
 20
12.6835
 30
0.0
 11
55.5198
 21
12.6835
 31
0.0
  0
LINE
  8
0
 62
     0
 10
55.5198
 20
12.6835
 30
0.0
 11
55.5198
 21
15.7827
 31
0.0
  0
LINE
  8
0
 62
     0
 10
55.5198
 20
15.7827
 30
0.0
 11
54.719
 21
15.7827
 31
0.0
  0
LINE
  8
0
 62
     0
 10
54.719
 20
15.7827
 30
0.0
 11
54.719
 21
16.7831
 31
0.0
  0
LINE
  8
0
 62
     0
 10
54.719
 20
16.7831
 30
0.0
 11
40.7197
 21
16.7831
 31
0.0
  0
LINE
  8
0
 62
     0
 10
2.61965
 20
35.833
 30
0.0
 11
2.61965
 21
34.8327
 31
0.0
  0
LINE
  8
0
 62
     0
 10
2.61965
 20
34.8327
 30
0.0
 11
1.81901
 21
34.8327
 31
0.0
  0
LINE
  8
0
 62
     0
 10
1.81901
 20
34.8327
 30
0.0
 11
1.81901
 21
31.7335
 31
0.0
  0
LINE
  8
0
 62
     0
 10
1.81901
 20
31.7335
 30
0.0
 11
2.61965
 21
31.7335
 31
0.0
  0
LINE
  8
0
 62
     0
 10
2.61965
 20
31.7335
 30
0.0
 11
2.61965
 21
25.9333
 31
0.0
  0
LINE
  8
0
 62
     0
 10
2.61965
 20
25.9333
 30
0.0
 11
1.81901
 21
25.9333
 31
0.0
  0
LINE
  8
0
 62
     0
 10
1.81901
 20
25.9333
 30
0.0
 11
1.81901
 21
22.8327
 31
0.0
  0
LINE
  8
0
 62
     0
 10
1.81901
 20
22.8327
 30
0.0
 11
2.61965
 21
22.8327
 31
0.0
  0
LINE
  8
0
 62
     0
 10
2.61965
 20
22.8327
 30
0.0
 11
2.61965
 21
21.8336
 31
0.0
  0
LINE
  8
0
 62
     0
 10
2.61965
 20
21.8336
 30
0.0
 11
16.6192
 21
21.8336
 31
0.0
  0
LINE
  8
0
 62
     0
 10
16.6192
 20
21.8336
 30
0.0
 11
16.6192
 21
22.8327
 31
0.0
  0
LINE
  8
0
 62
     0
 10
16.6192
 20
22.8327
 30
0.0
 11
17.4198
 21
22.8327
 31
0.0
  0
LINE
  8
0
 62
     0
 10
17.4198
 20
22.8327
 30
0.0
 11
17.4198
 21
25.9333
 31
0.0
  0
LINE
  8
0
 62
     0
 10
17.4198
 20
25.9333
 30
0.0
 11
16.6192
 21
25.9333
 31
0.0
  0
LINE
  8
0
 62
     0
 10
16.6192
 20
25.9333
 30
0.0
 11
16.6192
 21
31.7335
 31
0.0
  0
LINE
  8
0
 62
     0
 10
16.6192
 20
31.7335
 30
0.0
 11
17.4198
 21
31.7335
 31
0.0
  0
LINE
  8
0
 62
     0
 10
17.4198
 20
31.7335
 30
0.0
 11
17.4198
 21
34.8327
 31
0.0
  0
LINE
  8
0
 62
     0
 10
17.4198
 20
34.8327
 30
0.0
 11
16.6192
 21
34.8327
 31
0.0
  0
LINE
  8
0
 62
     0
 10
16.6192
 20
34.8327
 30
0.0
 11
16.6192
 21
35.833
 31
0.0
  0
LINE
  8
0
 62
     0
 10
16.6192
 20
35.833
 30
0.0
 11
2.61965
 21
35.833
 31
0.0
  0
LINE
  8
0
 62
     0
 10
21.6697
 20
35.833
 30
0.0
 11
21.6697
 21
34.8327
 31
0.0
  0
LINE
  8
0
 62
     0
 10
21.6697
 20
34.8327
 30
0.0
 11
20.869
 21
34.8327
 31
0.0
  0
LINE
  8
0
 62
     0
 10
20.869
 20
34.8327
 30
0.0
 11
20.869
 21
31.7335
 31
0.0
  0
LINE
  8
0
 62
     0
 10
20.869
 20
31.7335
 30
0.0
 11
21.6697
 21
31.7335
 31
0.0
  0
LINE
  8
0
 62
     0
 10
21.6697
 20
31.7335
 30
0.0
 11
21.6697
 21
25.9333
 31
0.0
  0
LINE
  8
0
 62
     0
 10
21.6697
 20
25.9333
 30
0.0
 11
20.869
 21
25.9333
 31
0.0
  0
LINE
  8
0
 62
     0
 10
20.869
 20
25.9333
 30
0.0
 11
20.869
 21
22.8327
 31
0.0
  0
LINE
  8
0
 62
     0
 10
20.869
 20
22.8327
 30
0.0
 11
21.6697
 21
22.8327
 31
0.0
  0
LINE
  8
0
 62
     0
 10
21.6697
 20
22.8327
 30
0.0
 11
21.6697
 21
21.8336
 31
0.0
  0
LINE
  8
0
 62
     0
 10
21.6697
 20
21.8336
 30
0.0
 11
35.669
 21
21.8336
 31
0.0
  0
LINE
  8
0
 62
     0
 10
35.669
 20
21.8336
 30
0.0
 11
35.669
 21
22.8327
 31
0.0
  0
LINE
  8
0
 62
     0
 10
35.669
 20
22.8327
 30
0.0
 11
36.4698
 21
22.8327
 31
0.0
  0
LINE
  8
0
 62
     0
 10
36.4698
 20
22.8327
 30
0.0
 11
36.4698
 21
25.9333
 31
0.0
  0
LINE
  8
0
 62
     0
 10
36.4698
 20
25.9333
 30
0.0
 11
35.669
 21
25.9333
 31
0.0
  0
LINE
  8
0
 62
     0
 10
35.669
 20
25.9333
 30
0.0
 11
35.669
 21
31.7335
 31
0.0
  0
LINE
  8
0
 62
     0
 10
35.669
 20
31.7335
 30
0.0
 11
36.4698
 21
31.7335
 31
0.0
  0
LINE
  8
0
 62
     0
 10
36.4698
 20
31.7335
 30
0.0
 11
36.4698
 21
34.8327
 31
0.0
  0
LINE
  8
0
 62
     0
 10
36.4698
 20
34.8327
 30
0.0
 11
35.669
 21
34.8327
 31
0.0
  0
LINE
  8
0
 62
     0
 10
35.669
 20
34.8327
 30
0.0
 11
35.669
 21
35.833
 31
0.0
  0
LINE
  8
0
 62
     0
 10
35.669
 20
35.833
 30
0.0
 11
21.6697
 21
35.833
 31
0.0
  0
LINE
  8
0
 62
     0
 10
40.7197
 20
35.833
 30
0.0
 11
40.7197
 21
34.8327
 31
0.0
  0
LINE
  8
0
 62
     0
 10
40.7197
 20
34.8327
 30
0.0
 11
39.9189
 21
34.8327
 31
0.0
  0
LINE
  8
0
 62
     0
 10
39.9189
 20
34.8327
 30
0.0
 11
39.9189
 21
31.7335
 31
0.0
  0
LINE
  8
0
 62
     0
 10
39.9189
 20
31.7335
 30
0.0
 11
40.7197
 21
31.7335
 31
0.0
  0
LINE
  8
0
 62
     0
 10
40.7197
 20
31.7335
 30
0.0
 11
40.7197
 21
25.9333
 31
0.0
  0
LINE
  8
0
 62
     0
 10
40.7197
 20
25.9333
 30
0.0
 11
39.9189
 21
25.9333
 31
0.0
  0
LINE
  8
0
 62
     0
 10
39.9189
 20
25.9333
 30
0.0
 11
39.9189
 21
22.8327
 31
0.0
  0
LINE
  8
0
 62
     0
 10
39.9189
 20
22.8327
 30
0.0
 11
40.7197
 21
22.8327
 31
0.0
  0
LINE
  8
0
 62
     0
 10
40.7197
 20
22.8327
 30
0.0
 11
40.7197
 21
21.8336
 31
0.0
  0
LINE
  8
0
 62
     0
 10
40.7197
 20
21.8336
 30
0.0
 11
54.719
 21
21.8336
 31
0.0
  0
LINE
  8
0
 62
     0
 10
54.719
 20
21.8336
 30
0.0
 11
54.719
 21
22.8327
 31
0.0
  0
LINE
  8
0
 62
     0
 10
54.719
 20
22.8327
 30
0.0
 11
55.5198
 21
22.8327
 31
0.0
  0
LINE
  8
0
 62
     0
 10
55.5198
 20
22.8327
 30
0.0
 11
55.5198
 21
25.9333
 31
0.0
  0
LINE
  8
0
 62
     0
 10
55.5198
 20
25.9333
 30
0.0
 11
54.719
 21
25.9333
 31
0.0
  0
LINE
  8
0
 62
     0
 10
54.719
 20
25.9333
 30
0.0
 11
54.719
 21
31.7335
 31
0.0
  0
LINE
  8
0
 62
     0
 10
54.719
 20
31.7335
 30
0.0
 11
55.5198
 21
31.7335
 31
0.0
  0
LINE
  8
0
 62
     0
 10
55.5198
 20
31.7335
 30
0.0
 11
55.5198
 21
34.8327
 31
0.0
  0
LINE
  8
0
 62
     0
 10
55.5198
 20
34.8327
 30
0.0
 11
54.719
 21
34.8327
 31
0.0
  0
LINE
  8
0
 62
     0
 10
54.719
 20
34.8327
 30
0.0
 11
54.719
 21
35.833
 31
0.0
  0
LINE
  8
0
 62
     0
 10
54.719
 20
35.833
 30
0.0
 11
40.7197
 21
35.833
 31
0.0
  0
LINE
  8
0
 62
     0
 10
2.61965
 20
64.4081
 30
0.0
 11
2.61965
 21
63.4076
 31
0.0
  0
LINE
  8
0
 62
     0
 10
2.61965
 20
63.4076
 30
0.0
 11
1.81901
 21
63.4076
 31
0.0
  0
LINE
  8
0
 62
     0
 10
1.81901
 20
63.4076
 30
0.0
 11
1.81901
 21
60.3084
 31
0.0
  0
LINE
  8
0
 62
     0
 10
1.81901
 20
60.3084
 30
0.0
 11
2.61965
 21
60.3084
 31
0.0
  0
LINE
  8
0
 62
     0
 10
2.61965
 20
60.3084
 30
0.0
 11
2.61965
 21
54.5084
 31
0.0
  0
LINE
  8
0
 62
     0
 10
2.61965
 20
54.5084
 30
0.0
 11
1.81901
 21
54.5084
 31
0.0
  0
LINE
  8
0
 62
     0
 10
1.81901
 20
54.5084
 30
0.0
 11
1.81901
 21
51.4078
 31
0.0
  0
LINE
  8
0
 62
     0
 10
1.81901
 20
51.4078
 30
0.0
 11
2.61965
 21
51.4078
 31
0.0
  0
LINE
  8
0
 62
     0
 10
2.61965
 20
51.4078
 30
0.0
 11
2.61965
 21
50.4088
 31
0.0
  0
LINE
  8
0
 62
     0
 10
2.61965
 20
50.4088
 30
0.0
 11
16.6192
 21
50.4088
 31
0.0
  0
LINE
  8
0
 62
     0
 10
16.6192
 20
50.4088
 30
0.0
 11
16.6192
 21
51.4078
 31
0.0
  0
LINE
  8
0
 62
     0
 10
16.6192
 20
51.4078
 30
0.0
 11
17.4198
 21
51.4078
 31
0.0
  0
LINE
  8
0
 62
     0
 10
17.4198
 20
51.4078
 30
0.0
 11
17.4198
 21
54.5084
 31
0.0
  0
LINE
  8
0
 62
     0
 10
17.4198
 20
54.5084
 30
0.0
 11
16.6192
 21
54.5084
 31
0.0
  0
LINE
  8
0
 62
     0
 10
16.6192
 20
54.5084
 30
0.0
 11
16.6192
 21
60.3084
 31
0.0
  0
LINE
  8
0
 62
     0
 10
16.6192
 20
60.3084
 30
0.0
 11
17.4198
 21
60.3084
 31
0.0
  0
LINE
  8
0
 62
     0
 10
17.4198
 20
60.3084
 30
0.0
 11
17.4198
 21
63.4076
 31
0.0
  0
LINE
  8
0
 62
     0
 10
17.4198
 20
63.4076
 30
0.0
 11
16.6192
 21
63.4076
 31
0.0
  0
LINE
  8
0
 62
     0
 10
16.6192
 20
63.4076
 30
0.0
 11
16.6192
 21
64.4081
 31
0.0
  0
LINE
  8
0
 62
     0
 10
16.6192
 20
64.4081
 30
0.0
 11
2.61965
 21
64.4081
 31
0.0
  0
LINE
  8
0
 62
     0
 10
21.6697
 20
64.4081
 30
0.0
 11
21.6697
 21
63.4076
 31
0.0
  0
LINE
  8
0
 62
     0
 10
21.6697
 20
63.4076
 30
0.0
 11
20.869
 21
63.4076
 31
0.0
  0
LINE
  8
0
 62
     0
 10
20.869
 20
63.4076
 30
0.0
 11
20.869
 21
60.3084
 31
0.0
  0
LINE
  8
0
 62
     0
 10
20.869
 20
60.3084
 30
0.0
 11
21.6697
 21
60.3084
 31
0.0
  0
LINE
  8
0
 62
     0
 10
21.6697
 20
60.3084
 30
0.0
 11
21.6697
 21
54.5084
 31
0.0
  0
LINE
  8
0
 62
     0
 10
21.6697
 20
54.5084
 30
0.0
 11
20.869
 21
54.5084
 31
0.0
  0
LINE
  8
0
 62
     0
 10
20.869
 20
54.5084
 30
0.0
 11
20.869
 21
51.4078
 31
0.0
  0
LINE
  8
0
 62
     0
 10
20.869
 20
51.4078
 30
0.0
 11
21.6697
 21
51.4078
 31
0.0
  0
LINE
  8
0
 62
     0
 10
21.6697
 20
51.4078
 30
0.0
 11
21.6697
 21
50.4088
 31
0.0
  0
LINE
  8
0
 62
     0
 10
21.6697
 20
50.4088
 30
0.0
 11
35.669
 21
50.4088
 31
0.0
  0
LINE
  8
0
 62
     0
 10
35.669
 20
50.4088
 30
0.0
 11
35.669
 21
51.4078
 31
0.0
  0
LINE
  8
0
 62
     0
 10
35.669
 20
51.4078
 30
0.0
 11
36.4698
 21
51.4078
 31
0.0
  0
LINE
  8
0
 62
     0
 10
36.4698
 20
51.4078
 30
0.0
 11
36.4698
 21
54.5084
 31
0.0
  0
LINE
  8
0
 62
     0
 10
36.4698
 20
54.5084
 30
0.0
 11
35.669
 21
54.5084
 31
0.0
  0
LINE
  8
0
 62
     0
 10
35.669
 20
54.5084
 30
0.0
 11
35.669
 21
60.3084
 31
0.0
  0
LINE
  8
0
 62
     0
 10
35.669
 20
60.3084
 30
0.0
 11
36.4698
 21
60.3084
 31
0.0
  0
LINE
  8
0
 62
     0
 10
36.4698
 20
60.3084
 30
0.0
 11
36.4698
 21
63.4076
 31
0.0
  0
LINE
  8
0
 62
     0
 10
36.4698
 20
63.4076
 30
0.0
 11
35.669
 21
63.4076
 31
0.0
  0
LINE
  8
0
 62
     0
 10
35.669
 20
63.4076
 30
0.0
 11
35.669
 21
64.4081
 31
0.0
  0
LINE
  8
0
 62
     0
 10
35.669
 20
64.4081
 30
0.0
 11
21.6697
 21
64.4081
 31
0.0
  0
LINE
  8
0
 62
     0
 10
40.7197
 20
64.4081
 30
0.0
 11
40.7197
 21
63.4076
 31
0.0
  0
LINE
  8
0
 62
     0
 10
40.7197
 20
63.4076
 30
0.0
 11
39.9189
 21
63.4076
 31
0.0
  0
LINE
  8
0
 62
     0
 10
39.9189
 20
63.4076
 30
0.0
 11
39.9189
 21
60.3084
 31
0.0
  0
LINE
  8
0
 62
     0
 10
39.9189
 20
60.3084
 30
0.0
 11
40.7197
 21
60.3084
 31
0.0
  0
LINE
  8
0
 62
     0
 10
40.7197
 20
60.3084
 30
0.0
 11
40.7197
 21
54.5084
 31
0.0
  0
LINE
  8
0
 62
     0
 10
40.7197
 20
54.5084
 30
0.0
 11
39.9189
 21
54.5084
 31
0.0
  0
LINE
  8
0
 62
     0
 10
39.9189
 20
54.5084
 30
0.0
 11
39.9189
 21
51.4078
 31
0.0
  0
LINE
  8
0
 62
     0
 10
39.9189
 20
51.4078
 30
0.0
 11
40.7197
 21
51.4078
 31
0.0
  0
LINE
  8
0
 62
     0
 10
40.7197
 20
51.4078
 30
0.0
 11
40.7197
 21
50.4088
 31
0.0
  0
LINE
  8
0
 62
     0
 10
40.7197
 20
50.4088
 30
0.0
 11
54.719
 21
50.4088
 31
0.0
  0
LINE
  8
0
 62
     0
 10
54.719
 20
50.4088
 30
0.0
 11
54.719
 21
51.4078
 31
0.0
  0
LINE
  8
0
 62
     0
 10
54.719
 20
51.4078
 30
0.0
 11
55.5198
 21
51.4078
 31
0.0
  0
LINE
  8
0
 62
     0
 10
55.5198
 20
51.4078
 30
0.0
 11
55.5198
 21
54.5084
 31
0.0
  0
LINE
  8
0
 62
     0
 10
55.5198
 20
54.5084
 30
0.0
 11
54.719
 21
54.5084
 31
0.0
  0
LINE
  8
0
 62
     0
 10
54.719
 20
54.5084
 30
0.0
 11
54.719
 21
60.3084
 31
0.0
  0
LINE
  8
0
 62
     0
 10
54.719
 20
60.3084
 30
0.0
 11
55.5198
 21
60.3084
 31
0.0
  0
LINE
  8
0
 62
     0
 10
55.5198
 20
60.3084
 30
0.0
 11
55.5198
 21
63.4076
 31
0.0
  0
LINE
  8
0
 62
     0
 10
55.5198
 20
63.4076
 30
0.0
 11
54.719
 21
63.4076
 31
0.0
  0
LINE
  8
0
 62
     0
 10
54.719
 20
63.4076
 30
0.0
 11
54.719
 21
64.4081
 31
0.0
  0
LINE
  8
0
 62
     0
 10
54.719
 20
64.4081
 30
0.0
 11
40.7197
 21
64.4081
 31
0.0
  0
ENDSEC
  0
EOF
